# xmcd
#
# Track frame offsets: 
#        182
#        15292
#        31540
#        46437
#        66302
#        80262
#        93422
#        109812
#        120975
#        135467
#        152732
#
# Disc length: 2164 seconds
#
# Revision: 2
# Processed by: cddbd v1.5.2PL0 Copyright (c) Steve Scherf et al.
# Submitted via: ExactAudioCopy v0.95b4
#
DISCID=7908720b
DTITLE=Freddie King - My Feeling For The Blues
DYEAR=1970
DGENRE=
TTITLE0=Yonder Wall
TTITLE1=Stumble
TTITLE2=I Wonder Why
TTITLE3=Stormy Monday
TTITLE4=I Don't Know
TTITLE5=What'd I Say
TTITLE6=Ain't Nobody's Business What We Do
TTITLE7=You Don't Have To Go
TTITLE8=Woke Up This Morning
TTITLE9=The Things I Used To Do
TTITLE10=My Feeling For The Blues
EXTD=
EXTT0=
EXTT1=
EXTT2=
EXTT3=
EXTT4=
EXTT5=
EXTT6=
EXTT7=
EXTT8=
EXTT9=
EXTT10=
PLAYORDER=
